#!OML:ASF E:\Style6\Style6.ASF
:FULLY-SPECIFIED
:DEGREES
2220
root 0.466651 18.0424 0.684153 13.8539 4.45533 -0.848253
lowerback 4.27197 -2.28315 0.189121
upperback -6.32795 -2.92015 1.80457
thorax -8.98319 -1.37177 2.15285
lowerneck -5.83563 -0.0119609 3.58067
upperneck 22.1936 0.842329 -6.44752
head 7.80829 0.102777 -2.67295
rclavicle -3.70236e-015 1.55052e-014
rhumerus -41.1203 10.3789 -88.7696
rradius 42.849
rwrist 11.4233
rhand 6.92179 1.03499
rfingers 7.12502
rthumb 32.2012 -26.1304
lclavicle -3.70236e-015 1.55052e-014
lhumerus -39.74 -17.4495 94.2248
lradius 38.7018
lwrist -5.46751
lhand -2.00949 18.3227
lfingers 7.12502
lthumb 23.6643 46.8861
rfemur -23.4055 6.30237 18.412
rtibia 24.9399
rfoot -13.9124 -22.5283
rtoes 7.45342
lfemur -23.6824 -13.5296 -15.2316
ltibia 26.2776
lfoot -6.49045 16.5863
ltoes -22.9383
2221
root 0.466374 18.0432 0.690294 13.9013 4.46286 -0.95611
lowerback 4.19657 -2.29881 0.330539
upperback -6.33833 -2.92653 1.84538
thorax -8.95497 -1.38329 2.11442
lowerneck -5.84148 -0.00296661 3.61238
upperneck 22.1272 0.853799 -6.47933
head 7.78799 0.108275 -2.68682
rclavicle 5.2181e-016 -1.35174e-014
rhumerus -41.1386 10.4468 -88.7642
rradius 42.8551
rwrist 11.3691
rhand 6.90409 1.22224
rfingers 7.12502
rthumb 32.1844 -25.9465
lclavicle 5.2181e-016 -1.35174e-014
lhumerus -39.786 -17.5574 94.2463
lradius 38.7524
lwrist -5.32044
lhand -1.97037 18.346
lfingers 7.12502
lthumb 23.7018 46.9046
rfemur -23.4239 6.36561 18.5239
rtibia 24.9154
rfoot -14.0387 -22.4869
rtoes 7.69501
lfemur -23.7093 -13.5383 -15.0935
ltibia 26.2549
lfoot -6.45953 16.6397
ltoes -23.154
2222
root 0.465688 18.0446 0.69635 13.9508 4.43869 -1.00099
lowerback 4.14409 -2.30825 0.39643
upperback -6.36158 -2.9321 1.87018
thorax -8.95139 -1.3896 2.10282
lowerneck -5.82557 0.00467202 3.6384
upperneck 22.0357 0.866558 -6.52532
head 7.75548 0.113183 -2.70374
rclavicle -2.45126e-014 1.68967e-014
rhumerus -41.1651 10.5418 -88.7505
rradius 42.8316
rwrist 11.2979
rhand 6.87354 1.39098
rfingers 7.12502
rthumb 32.1553 -25.7837
lclavicle -2.45126e-014 1.68967e-014
lhumerus -39.8567 -17.7146 94.2956
lradius 38.8378
lwrist -4.98672
lhand -2.0248 18.3694
lfingers 7.12502
lthumb 23.6496 46.9347
rfemur -23.4545 6.41764 18.567
rtibia 24.8803
rfoot -14.021 -22.5055
rtoes 7.64782
lfemur -23.737 -13.5339 -15.0308
ltibia 26.2424
lfoot -6.54321 16.6745
ltoes -22.7783
2223
root 0.464294 18.0455 0.702662 14.0105 4.38036 -0.976561
lowerback 4.12136 -2.30168 0.384417
upperback -6.40607 -2.92405 1.87193
thorax -8.98624 -1.38436 2.11111
lowerneck -5.80981 -0.00626546 3.57468
upperneck 21.9932 0.850697 -6.48829
head 7.73755 0.104287 -2.68088
rclavicle -4.70995e-014 -1.05356e-014
rhumerus -41.2417 10.6725 -88.7558
rradius 42.8579
rwrist 11.2274
rhand 6.95855 1.45418
rfingers 7.12502
rthumb 32.2362 -25.7041
lclavicle -4.70995e-014 -1.05356e-014
lhumerus -39.9731 -17.8131 94.3288
lradius 38.9622
lwrist -4.76846
lhand -2.07982 18.3867
lfingers 7.12502
lthumb 23.5968 46.9589
rfemur -23.5029 6.48991 18.5268
rtibia 24.8662
rfoot -13.8767 -22.6197
rtoes 7.2813
lfemur -23.758 -13.507 -15.0469
ltibia 26.2093
lfoot -6.68068 16.6764
ltoes -21.9048
2224
root 0.463139 18.0454 0.707752 14.0174 4.31429 -0.926627
lowerback 4.18802 -2.30004 0.351852
upperback -6.44945 -2.92453 1.85839
thorax -9.07238 -1.38173 2.12035
lowerneck -5.84936 -0.00458674 3.55115
upperneck 22.0448 0.851889 -6.46207
head 7.76192 0.104146 -2.66922
rclavicle -2.14066e-014 9.93923e-016
rhumerus -41.3662 10.8574 -88.8161
rradius 42.9413
rwrist 10.9871
rhand 7.0567 1.39451
rfingers 7.12502
rthumb 32.3297 -25.7448
lclavicle -2.14066e-014 9.93923e-016
lhumerus -40.1289 -17.8262 94.3127
lradius 39.1091
lwrist -4.71849
lhand -2.10008 18.4091
lfingers 7.12502
lthumb 23.5774 46.9838
rfemur -23.5125 6.57538 18.4433
rtibia 24.8935
rfoot -14.1004 -22.5423
rtoes 8.08395
lfemur -23.6986 -13.5035 -15.1026
ltibia 26.1436
lfoot -6.75976 16.6896
ltoes -21.7493
2225
root 0.463251 18.0457 0.712704 14.0533 4.26824 -0.900233
lowerback 4.19765 -2.29009 0.36038
upperback -6.48304 -2.9103 1.85385
thorax -9.1161 -1.37493 2.11106
lowerneck -5.8774 -0.0252183 3.50139
upperneck 22.0548 0.823363 -6.43142
head 7.76869 0.0887126 -2.65315
rclavicle -1.84e-014 -7.7526e-015
rhumerus -41.4814 11.068 -88.8598
rradius 43.0617
rwrist 10.6406
rhand 7.14857 1.29256
rfingers 7.12502
rthumb 32.4171 -25.8288
lclavicle -1.84e-014 -7.7526e-015
lhumerus -40.1877 -17.8824 94.3121
lradius 39.1527
lwrist -4.63886
lhand -2.08726 18.4622
lfingers 7.12502
lthumb 23.5897 47.0352
rfemur -23.5438 6.63606 18.3919
rtibia 24.8934
rfoot -14.15 -22.5573
rtoes 8.50122
lfemur -23.6851 -13.492 -15.1387
ltibia 26.1015
lfoot -6.66869 16.7188
ltoes -22.4107
2226
root 0.464064 18.0467 0.718513 14.0911 4.22809 -0.832377
lowerback 4.18811 -2.2649 0.352326
upperback -6.50006 -2.88012 1.81421
thorax -9.13158 -1.36099 2.07021
lowerneck -5.93381 -0.0367832 3.53702
upperneck 22.0819 0.80168 -6.42825
head 7.78681 0.0805657 -2.66078
rclavicle -2.41275e-014 -1.5704e-014
rhumerus -41.547 11.1036 -88.8644
rradius 43.1449
rwrist 10.4645
rhand 7.27113 1.25431
rfingers 7.12502
rthumb 32.5337 -25.8431
lclavicle -2.41275e-014 -1.5704e-014
lhumerus -40.217 -18.0813 94.3389
lradius 39.2092
lwrist -4.41916
lhand -2.04641 18.5489
lfingers 7.12502
lthumb 23.6289 47.1169
rfemur -23.5435 6.6318 18.314
rtibia 24.8521
rfoot -14.0043 -22.5857
rtoes 8.01717
lfemur -23.6841 -13.5128 -15.2145
ltibia 26.0922
lfoot -6.6749 16.7438
ltoes -22.4739
2227
root 0.464938 18.0481 0.726993 14.1005 4.22127 -0.931428
lowerback 4.17313 -2.24256 0.533085
upperback -6.5169 -2.8344 1.81068
thorax -9.15186 -1.35092 1.96026
lowerneck -6.00071 -0.0368255 3.61588
upperneck 22.1288 0.789392 -6.4204
head 7.81396 0.0805358 -2.67394
rclavicle -4.46769e-014 2.5842e-015
rhumerus -41.6215 11.1183 -88.8566
rradius 43.1934
rwrist 10.307
rhand 7.37844 1.23192
rfingers 7.12502
rthumb 32.6358 -25.8444
lclavicle -4.46769e-014 2.5842e-015
lhumerus -40.2966 -18.2866 94.3782
lradius 39.329
lwrist -4.17285
lhand -2.17412 18.6651
lfingers 7.12502
lthumb 23.5064 47.2489
rfemur -23.4916 6.68169 18.418
rtibia 24.7904
rfoot -14.0501 -22.5595
rtoes 8.00794
lfemur -23.6639 -13.5544 -15.1022
ltibia 26.0995
lfoot -6.74276 16.826
ltoes -22.1205
2228
root 0.465219 18.0492 0.735036 14.1023 4.193 -1.04491
lowerback 4.17675 -2.21811 0.703764
upperback -6.55112 -2.7857 1.81382
thorax -9.20137 -1.33817 1.8643
lowerneck -5.91963 -0.0573593 3.68466
upperneck 22.0214 0.751878 -6.43729
head 7.76142 0.0687952 -2.69191
rclavicle -1.87603e-014 2.18663e-015
rhumerus -41.7299 11.0958 -88.8461
rradius 43.1951
rwrist 10.1123
rhand 7.3739 1.24376
rfingers 7.12502
rthumb 32.6315 -25.8335
lclavicle -1.87603e-014 2.18663e-015
lhumerus -40.4551 -18.4301 94.385
lradius 39.5004
lwrist -4.05302
lhand -2.23457 18.6245
lfingers 7.12502
lthumb 23.4484 47.2157
rfemur -23.4411 6.76722 18.5326
rtibia 24.7227
rfoot -14.0986 -22.6014
rtoes 7.84646
lfemur -23.6279 -13.5094 -14.9985
ltibia 26.1047
lfoot -6.76212 16.8722
ltoes -22.2783
2229
root 0.463624 18.0505 0.741386 14.0907 4.15529 -1.035
lowerback 4.21477 -2.20976 0.676633
upperback -6.57924 -2.77477 1.82766
thorax -9.25315 -1.32977 1.89584
lowerneck -5.84913 -0.0741052 3.57919
upperneck 21.9086 0.723538 -6.3587
head 7.70961 0.0556936 -2.64742
rclavicle 1.70582e-014 -2.98177e-015
rhumerus -41.837 11.2271 -88.8641
rradius 43.2318
rwrist 9.7899
rhand 7.39407 1.12133
rfingers 7.12502
rthumb 32.6507 -25.9519
lclavicle 1.70582e-014 -2.98177e-015
lhumerus -40.6248 -18.4982 94.4182
lradius 39.6643
lwrist -4.01846
lhand -2.14938 18.6162
lfingers 7.12502
lthumb 23.5301 47.197
rfemur -23.3758 6.82866 18.5259
rtibia 24.6444
rfoot -13.8374 -22.823
rtoes 6.73359
lfemur -23.5807 -13.4938 -15.0234
ltibia 26.1098
lfoot -6.74386 16.9136
ltoes -22.6143
2230
root 0.463091 18.0509 0.747613 14.1067 4.11667 -1.03547
lowerback 4.21086 -2.23791 0.655282
upperback -6.61009 -2.81032 1.87891
thorax -9.28042 -1.34334 1.96743
lowerneck -5.86078 -0.0361445 3.44012
upperneck 21.9215 0.78389 -6.30274
head 7.71933 0.077777 -2.60041
rclavicle 6.80837e-015 3.97569e-015
rhumerus -41.9162 11.4699 -88.8731
rradius 43.2775
rwrist 9.49223
rhand 7.68325 0.959268
rfingers 7.12502
rthumb 32.9258 -26.0566
lclavicle 6.80837e-015 3.97569e-015
lhumerus -40.7518 -18.4574 94.4359
lradius 39.7864
lwrist -3.98053
lhand -1.99769 18.6599
lfingers 7.12502
lthumb 23.6756 47.2219
rfemur -23.3417 6.86758 18.5285
rtibia 24.5818
rfoot -13.6572 -22.9185
rtoes 6.11385
lfemur -23.5667 -13.5203 -15.0158
ltibia 26.0959
lfoot -6.721 16.9622
ltoes -22.7303
2231
root 0.463951 18.05 0.753113 14.1656 4.11593 -1.04812
lowerback 4.13444 -2.26731 0.695405
upperback -6.62233 -2.84468 1.91591
thorax -9.24788 -1.36195 1.98499
lowerneck -5.94318 0.00351285 3.38406
upperneck 21.9582 0.849818 -6.31815
head 7.75009 0.1016 -2.59166
rclavicle -5.82688e-015 -2.46493e-014
rhumerus -41.9036 11.6059 -88.8309
rradius 43.2595
rwrist 9.22492
rhand 7.92968 0.956356
rfingers 7.12502
rthumb 33.1602 -26.0099
lclavicle -5.82688e-015 -2.46493e-014
lhumerus -40.7896 -18.4467 94.4282
lradius 39.8341
lwrist -3.963
lhand -2.06308 18.6125
lfingers 7.12502
lthumb 23.6129 47.1826
rfemur -23.3599 6.86798 18.5373
rtibia 24.5475
rfoot -13.72 -22.8389
rtoes 6.31199
lfemur -23.5969 -13.5316 -14.989
ltibia 26.0566
lfoot -6.69726 17.0041
ltoes -22.9222
